<svg width="40" height="39" viewBox="0 0 40 39" fill="none" xmlns="http://www.w3.org/2000/svg">
<path d="M20 6.37667H40V9.565H20V6.37667ZM20 28.695H40V31.8833H20V28.695ZM11.4286 15.9417H2.85714C2.09961 15.9408 1.37333 15.6046 0.837673 15.0069C0.302019 14.4091 0.000756395 13.5987 0 12.7533V3.18833C0.000756395 2.34299 0.302019 1.53252 0.837673 0.934774C1.37333 0.337028 2.09961 0.000844074 2.85714 0H11.4286C12.1861 0.000844074 12.9124 0.337028 13.448 0.934774C13.9837 1.53252 14.285 2.34299 14.2857 3.18833V12.7533C14.285 13.5987 13.9837 14.4091 13.448 15.0069C12.9124 15.6046 12.1861 15.9408 11.4286 15.9417ZM2.85714 3.18833V12.7533H11.43L11.4286 3.18833H2.85714ZM11.4286 38.26H2.85714C2.09961 38.2592 1.37333 37.923 0.837673 37.3252C0.302019 36.7275 0.000756395 35.917 0 35.0717V25.5067C0.000756395 24.6613 0.302019 23.8509 0.837673 23.2531C1.37333 22.6554 2.09961 22.3192 2.85714 22.3183H11.4286C12.1861 22.3192 12.9124 22.6554 13.448 23.2531C13.9837 23.8509 14.285 24.6613 14.2857 25.5067V35.0717C14.285 35.917 13.9837 36.7275 13.448 37.3252C12.9124 37.923 12.1861 38.2592 11.4286 38.26ZM2.85714 25.5067V35.0717H11.43L11.4286 25.5067H2.85714Z" fill="white"/>
</svg>
